<?xml version="1.0" encoding="utf-8"?>
<!-- Generator: Adobe Illustrator 16.0.0, SVG Export Plug-In . SVG Version: 6.00 Build 0)  -->
<!DOCTYPE svg PUBLIC "-//W3C//DTD SVG 1.1//EN" "http://www.w3.org/Graphics/SVG/1.1/DTD/svg11.dtd">
<svg version="1.1" id="Layer_1" xmlns="http://www.w3.org/2000/svg" xmlns:xlink="http://www.w3.org/1999/xlink" x="0px" y="0px"
	 width="113.198px" height="110.36px" viewBox="0 0 113.198 110.36" enable-background="new 0 0 113.198 110.36"
	 xml:space="preserve">
<polygon fill="#FFFFFF" stroke="#000000" stroke-miterlimit="10" points="0,-106.314 30.753,-134.735 27.706,-92.973 
	69.099,-86.649 34.551,-62.991 55.415,-26.685 15.375,-38.948 0,0 -15.375,-38.948 -55.412,-26.688 -34.548,-62.991 
	-69.099,-86.649 -27.706,-92.973 -30.753,-134.735 "/>
<polygon fill="#FFFFFF" stroke="#000000" stroke-miterlimit="10" points="98.529,-28.373 129.282,-56.793 126.235,-15.032 
	167.628,-8.708 133.08,14.95 153.944,51.256 113.904,38.993 98.529,77.941 83.154,38.993 43.117,51.254 63.981,14.95 29.43,-8.708 
	70.823,-15.032 67.776,-56.793 "/>
<polygon fill="#FFFFFF" stroke="#000000" stroke-miterlimit="10" points="182.297,71.413 213.05,42.993 210.003,84.754 
	251.396,91.079 216.848,114.736 237.712,151.042 197.672,138.779 182.297,177.728 166.922,138.779 126.885,151.04 147.749,114.736 
	113.198,91.079 154.591,84.754 151.544,42.993 "/>
</svg>
