<svg x="0" y="0" width="400" height="400" version="1.1" xmlns="http://www.w3.org/2000/svg" xmlns:xlink="http://www.w3.org/1999/xlink"><g fill="none" stroke="none" stroke-width="1" stroke-linecap="butt" stroke-linejoin="miter" stroke-miterlimit="10" stroke-dasharray="" stroke-dashoffset="0" font-family="sans-serif" font-weight="normal" font-size="12" text-anchor="start" mix-blend-mode="normal"></g><g fill="#ffff00" stroke="#ff0000" stroke-width="1" stroke-linecap="butt" stroke-linejoin="miter" stroke-miterlimit="10" stroke-dasharray="" stroke-dashoffset="0" font-family="sans-serif" font-weight="normal" font-size="12" text-anchor="start" mix-blend-mode="normal"><path x="0" y="0" d="M150.3937,147.55906c2.3483,0 4.25197,-1.90367 4.25197,-4.25197c0,-2.3483 -1.90367,-4.25197 -4.25197,-4.25197c-2.3483,0 -4.25197,1.90367 -4.25197,4.25197c0,2.3483 1.90367,4.25197 4.25197,4.25197z M275.11811,117.79528L275.11811,282.20472c0,4.69659 -3.80734,8.50394 -8.50394,8.50394L221.25984,290.70866L221.25984,268.0315L212.75591,268.0315L212.75591,290.70866L133.38583,290.70866c-4.69659,0 -8.50394,-3.80734 -8.50394,-8.50394L124.88189,117.79528c0,-4.69659 3.80734,-8.50394 8.50394,-8.50394L212.75591,109.29134L212.75591,131.9685L221.25984,131.9685L221.25984,109.29134L266.61417,109.29134c4.69659,0 8.50394,3.80734 8.50394,8.50394z M150.3937,192.91339c2.3483,0 4.25197,-1.90367 4.25197,-4.25197c0,-2.3483 -1.90367,-4.25197 -4.25197,-4.25197c-2.3483,0 -4.25197,1.90367 -4.25197,4.25197c0,2.3483 1.90367,4.25197 4.25197,4.25197z M150.3937,170.23622c2.3483,0 4.25197,-1.90367 4.25197,-4.25197c0,-2.3483 -1.90367,-4.25197 -4.25197,-4.25197c-2.3483,0 -4.25197,1.90367 -4.25197,4.25197c0,2.3483 1.90367,4.25197 4.25197,4.25197z M235.43307,136.22047c-2.3483,0 -4.25197,1.90367 -4.25197,4.25197c0,2.3483 1.90367,4.25197 4.25197,4.25197c2.3483,0 4.25197,-1.90367 4.25197,-4.25197c0,-2.3483 -1.90367,-4.25197 -4.25197,-4.25197z M164.56693,204.25197c2.3483,0 4.25197,-1.90367 4.25197,-4.25197c0,-2.3483 -1.90367,-4.25197 -4.25197,-4.25197c-2.3483,0 -4.25197,1.90367 -4.25197,4.25197c0,2.3483 1.90367,4.25197 4.25197,4.25197z M217.00787,195.74803c-2.3483,0 -4.25197,1.90367 -4.25197,4.25197c0,2.3483 1.90367,4.25197 4.25197,4.25197c2.3483,0 4.25197,-1.90367 4.25197,-4.25197c0,-2.3483 -1.90367,-4.25197 -4.25197,-4.25197z M150.3937,215.59055c2.3483,0 4.25197,-1.90367 4.25197,-4.25197c0,-2.3483 -1.90367,-4.25197 -4.25197,-4.25197c-2.3483,0 -4.25197,1.90367 -4.25197,4.25197c0,2.3483 1.90367,4.25197 4.25197,4.25197z M150.3937,238.26772c2.3483,0 4.25197,-1.90367 4.25197,-4.25197c0,-2.3483 -1.90367,-4.25197 -4.25197,-4.25197c-2.3483,0 -4.25197,1.90367 -4.25197,4.25197c0,2.3483 1.90367,4.25197 4.25197,4.25197z M235.43307,263.77953c2.3483,0 4.25197,-1.90367 4.25197,-4.25197c0,-2.3483 -1.90367,-4.25197 -4.25197,-4.25197c-2.3483,0 -4.25197,1.90367 -4.25197,4.25197c0,2.3483 1.90367,4.25197 4.25197,4.25197z M150.3937,124.88189c2.3483,0 4.25197,-1.90367 4.25197,-4.25197c0,-2.3483 -1.90367,-4.25197 -4.25197,-4.25197c-2.3483,0 -4.25197,1.90367 -4.25197,4.25197c0,2.3483 1.90367,4.25197 4.25197,4.25197z M150.3937,260.94488c2.3483,0 4.25197,-1.90367 4.25197,-4.25197c0,-2.3483 -1.90367,-4.25197 -4.25197,-4.25197c-2.3483,0 -4.25197,1.90367 -4.25197,4.25197c0,2.3483 1.90367,4.25197 4.25197,4.25197z M150.3937,283.62205c2.3483,0 4.25197,-1.90367 4.25197,-4.25197c0,-2.3483 -1.90367,-4.25197 -4.25197,-4.25197c-2.3483,0 -4.25197,1.90367 -4.25197,4.25197c0,2.3483 1.90367,4.25197 4.25197,4.25197z"></path></g><g fill="none" stroke="none" stroke-width="0.25" stroke-linecap="butt" stroke-linejoin="miter" stroke-miterlimit="10" stroke-dasharray="" stroke-dashoffset="0" font-family="sans-serif" font-weight="normal" font-size="12" text-anchor="start" mix-blend-mode="normal"><polygon points="124.88189,290.70866 124.88189,109.29134 275.11811,109.29134 275.11811,290.70866" stroke="#333333"></polygon><path d="M198.58268,200c0,-0.78277 0.63456,-1.41732 1.41732,-1.41732c0.78277,0 1.41732,0.63456 1.41732,1.41732c0,0.78277 -0.63456,1.41732 -1.41732,1.41732c-0.78277,0 -1.41732,-0.63456 -1.41732,-1.41732z" stroke="#333333"></path><path d="M212.75591,200c0,-2.3483 1.90367,-4.25197 4.25197,-4.25197c2.3483,0 4.25197,1.90367 4.25197,4.25197c0,2.3483 -1.90367,4.25197 -4.25197,4.25197c-2.3483,0 -4.25197,-1.90367 -4.25197,-4.25197z" stroke="#333333"></path><path d="M215.59055,200c0,-0.78277 0.63456,-1.41732 1.41732,-1.41732c0.78277,0 1.41732,0.63456 1.41732,1.41732c0,0.78277 -0.63456,1.41732 -1.41732,1.41732c-0.78277,0 -1.41732,-0.63456 -1.41732,-1.41732z" stroke="#333333"></path><polygon points="212.75591,131.9685 212.75591,106.45669 221.25984,106.45669 221.25984,131.9685" stroke="#333333"></polygon><path d="M215.59055,200c0,-0.78277 0.63456,-1.41732 1.41732,-1.41732c0.78277,0 1.41732,0.63456 1.41732,1.41732c0,0.78277 -0.63456,1.41732 -1.41732,1.41732c-0.78277,0 -1.41732,-0.63456 -1.41732,-1.41732z" stroke="#333333"></path><polygon points="212.75591,293.54331 212.75591,268.0315 221.25984,268.0315 221.25984,293.54331" stroke="#333333"></polygon><path d="M215.59055,200c0,-0.78277 0.63456,-1.41732 1.41732,-1.41732c0.78277,0 1.41732,0.63456 1.41732,1.41732c0,0.78277 -0.63456,1.41732 -1.41732,1.41732c-0.78277,0 -1.41732,-0.63456 -1.41732,-1.41732z" stroke="#333333"></path><polygon points="212.75591,290.70866 212.75591,109.29134 221.25984,109.29134 221.25984,290.70866" stroke="#0088aa"></polygon><path d="M215.59055,200c0,-0.78277 0.63456,-1.41732 1.41732,-1.41732c0.78277,0 1.41732,0.63456 1.41732,1.41732c0,0.78277 -0.63456,1.41732 -1.41732,1.41732c-0.78277,0 -1.41732,-0.63456 -1.41732,-1.41732z" stroke="#0088aa"></path><path d="M231.1811,140.47244c0,-2.3483 1.90367,-4.25197 4.25197,-4.25197c2.3483,0 4.25197,1.90367 4.25197,4.25197c0,2.3483 -1.90367,4.25197 -4.25197,4.25197c-2.3483,0 -4.25197,-1.90367 -4.25197,-4.25197z" stroke="#333333"></path><path d="M234.01575,140.47244c0,-0.78277 0.63456,-1.41732 1.41732,-1.41732c0.78277,0 1.41732,0.63456 1.41732,1.41732c0,0.78277 -0.63456,1.41732 -1.41732,1.41732c-0.78277,0 -1.41732,-0.63456 -1.41732,-1.41732z" stroke="#333333"></path><polygon points="235.43307,140.47244 235.43307,140.47244 235.43307,140.47244 235.43307,140.47244" stroke="#0088aa"></polygon><path d="M234.01575,140.47244c0,-0.78277 0.63456,-1.41732 1.41732,-1.41732c0.78277,0 1.41732,0.63456 1.41732,1.41732c0,0.78277 -0.63456,1.41732 -1.41732,1.41732c-0.78277,0 -1.41732,-0.63456 -1.41732,-1.41732z" stroke="#0088aa"></path><path d="M231.1811,259.52756c0,-2.3483 1.90367,-4.25197 4.25197,-4.25197c2.3483,0 4.25197,1.90367 4.25197,4.25197c0,2.3483 -1.90367,4.25197 -4.25197,4.25197c-2.3483,0 -4.25197,-1.90367 -4.25197,-4.25197z" stroke="#333333"></path><path d="M234.01575,259.52756c0,-0.78277 0.63456,-1.41732 1.41732,-1.41732c0.78277,0 1.41732,0.63456 1.41732,1.41732c0,0.78277 -0.63456,1.41732 -1.41732,1.41732c-0.78277,0 -1.41732,-0.63456 -1.41732,-1.41732z" stroke="#333333"></path><polygon points="235.43307,259.52756 235.43307,259.52756 235.43307,259.52756 235.43307,259.52756" stroke="#0088aa"></polygon><path d="M234.01575,259.52756c0,-0.78277 0.63456,-1.41732 1.41732,-1.41732c0.78277,0 1.41732,0.63456 1.41732,1.41732c0,0.78277 -0.63456,1.41732 -1.41732,1.41732c-0.78277,0 -1.41732,-0.63456 -1.41732,-1.41732z" stroke="#0088aa"></path><path d="M160.31496,200c0,-2.3483 1.90367,-4.25197 4.25197,-4.25197c2.3483,0 4.25197,1.90367 4.25197,4.25197c0,2.3483 -1.90367,4.25197 -4.25197,4.25197c-2.3483,0 -4.25197,-1.90367 -4.25197,-4.25197z" stroke="#333333"></path><path d="M163.14961,200c0,-0.78277 0.63456,-1.41732 1.41732,-1.41732c0.78277,0 1.41732,0.63456 1.41732,1.41732c0,0.78277 -0.63456,1.41732 -1.41732,1.41732c-0.78277,0 -1.41732,-0.63456 -1.41732,-1.41732z" stroke="#333333"></path><polygon points="164.56693,200 164.56693,200 164.56693,200 164.56693,200" stroke="#0088aa"></polygon><path d="M163.14961,200c0,-0.78277 0.63456,-1.41732 1.41732,-1.41732c0.78277,0 1.41732,0.63456 1.41732,1.41732c0,0.78277 -0.63456,1.41732 -1.41732,1.41732c-0.78277,0 -1.41732,-0.63456 -1.41732,-1.41732z" stroke="#0088aa"></path><polygon points="139.05512,131.9685 139.05512,109.29134 161.73228,109.29134 161.73228,131.9685" stroke="#ff0000"></polygon><path d="M146.14173,120.62992c0,-2.3483 1.90367,-4.25197 4.25197,-4.25197c2.3483,0 4.25197,1.90367 4.25197,4.25197c0,2.3483 -1.90367,4.25197 -4.25197,4.25197c-2.3483,0 -4.25197,-1.90367 -4.25197,-4.25197z" stroke="#333333"></path><path d="M148.97638,120.62992c0,-0.78277 0.63456,-1.41732 1.41732,-1.41732c0.78277,0 1.41732,0.63456 1.41732,1.41732c0,0.78277 -0.63456,1.41732 -1.41732,1.41732c-0.78277,0 -1.41732,-0.63456 -1.41732,-1.41732z" stroke="#333333"></path><polygon points="139.05512,154.64567 139.05512,131.9685 161.73228,131.9685 161.73228,154.64567" stroke="#ff0000"></polygon><path d="M146.14173,143.30709c0,-2.3483 1.90367,-4.25197 4.25197,-4.25197c2.3483,0 4.25197,1.90367 4.25197,4.25197c0,2.3483 -1.90367,4.25197 -4.25197,4.25197c-2.3483,0 -4.25197,-1.90367 -4.25197,-4.25197z" stroke="#333333"></path><path d="M148.97638,143.30709c0,-0.78277 0.63456,-1.41732 1.41732,-1.41732c0.78277,0 1.41732,0.63456 1.41732,1.41732c0,0.78277 -0.63456,1.41732 -1.41732,1.41732c-0.78277,0 -1.41732,-0.63456 -1.41732,-1.41732z" stroke="#333333"></path><polygon points="139.05512,177.32283 139.05512,154.64567 161.73228,154.64567 161.73228,177.32283" stroke="#ff0000"></polygon><path d="M146.14173,165.98425c0,-2.3483 1.90367,-4.25197 4.25197,-4.25197c2.3483,0 4.25197,1.90367 4.25197,4.25197c0,2.3483 -1.90367,4.25197 -4.25197,4.25197c-2.3483,0 -4.25197,-1.90367 -4.25197,-4.25197z" stroke="#333333"></path><path d="M148.97638,165.98425c0,-0.78277 0.63456,-1.41732 1.41732,-1.41732c0.78277,0 1.41732,0.63456 1.41732,1.41732c0,0.78277 -0.63456,1.41732 -1.41732,1.41732c-0.78277,0 -1.41732,-0.63456 -1.41732,-1.41732z" stroke="#333333"></path><polygon points="139.05512,200 139.05512,177.32283 161.73228,177.32283 161.73228,200" stroke="#ff0000"></polygon><path d="M146.14173,188.66142c0,-2.3483 1.90367,-4.25197 4.25197,-4.25197c2.3483,0 4.25197,1.90367 4.25197,4.25197c0,2.3483 -1.90367,4.25197 -4.25197,4.25197c-2.3483,0 -4.25197,-1.90367 -4.25197,-4.25197z" stroke="#333333"></path><path d="M148.97638,188.66142c0,-0.78277 0.63456,-1.41732 1.41732,-1.41732c0.78277,0 1.41732,0.63456 1.41732,1.41732c0,0.78277 -0.63456,1.41732 -1.41732,1.41732c-0.78277,0 -1.41732,-0.63456 -1.41732,-1.41732z" stroke="#333333"></path><polygon points="139.05512,222.67717 139.05512,200 161.73228,200 161.73228,222.67717" stroke="#ff0000"></polygon><path d="M146.14173,211.33858c0,-2.3483 1.90367,-4.25197 4.25197,-4.25197c2.3483,0 4.25197,1.90367 4.25197,4.25197c0,2.3483 -1.90367,4.25197 -4.25197,4.25197c-2.3483,0 -4.25197,-1.90367 -4.25197,-4.25197z" stroke="#333333"></path><path d="M148.97638,211.33858c0,-0.78277 0.63456,-1.41732 1.41732,-1.41732c0.78277,0 1.41732,0.63456 1.41732,1.41732c0,0.78277 -0.63456,1.41732 -1.41732,1.41732c-0.78277,0 -1.41732,-0.63456 -1.41732,-1.41732z" stroke="#333333"></path><polygon points="139.05512,245.35433 139.05512,222.67717 161.73228,222.67717 161.73228,245.35433" stroke="#ff0000"></polygon><path d="M146.14173,234.01575c0,-2.3483 1.90367,-4.25197 4.25197,-4.25197c2.3483,0 4.25197,1.90367 4.25197,4.25197c0,2.3483 -1.90367,4.25197 -4.25197,4.25197c-2.3483,0 -4.25197,-1.90367 -4.25197,-4.25197z" stroke="#333333"></path><path d="M148.97638,234.01575c0,-0.78277 0.63456,-1.41732 1.41732,-1.41732c0.78277,0 1.41732,0.63456 1.41732,1.41732c0,0.78277 -0.63456,1.41732 -1.41732,1.41732c-0.78277,0 -1.41732,-0.63456 -1.41732,-1.41732z" stroke="#333333"></path><polygon points="139.05512,268.0315 139.05512,245.35433 161.73228,245.35433 161.73228,268.0315" stroke="#ff0000"></polygon><path d="M146.14173,256.69291c0,-2.3483 1.90367,-4.25197 4.25197,-4.25197c2.3483,0 4.25197,1.90367 4.25197,4.25197c0,2.3483 -1.90367,4.25197 -4.25197,4.25197c-2.3483,0 -4.25197,-1.90367 -4.25197,-4.25197z" stroke="#333333"></path><path d="M148.97638,256.69291c0,-0.78277 0.63456,-1.41732 1.41732,-1.41732c0.78277,0 1.41732,0.63456 1.41732,1.41732c0,0.78277 -0.63456,1.41732 -1.41732,1.41732c-0.78277,0 -1.41732,-0.63456 -1.41732,-1.41732z" stroke="#333333"></path><polygon points="139.05512,290.70866 139.05512,268.0315 161.73228,268.0315 161.73228,290.70866" stroke="#ff0000"></polygon><path d="M146.14173,279.37008c0,-2.3483 1.90367,-4.25197 4.25197,-4.25197c2.3483,0 4.25197,1.90367 4.25197,4.25197c0,2.3483 -1.90367,4.25197 -4.25197,4.25197c-2.3483,0 -4.25197,-1.90367 -4.25197,-4.25197z" stroke="#333333"></path><path d="M148.97638,279.37008c0,-0.78277 0.63456,-1.41732 1.41732,-1.41732c0.78277,0 1.41732,0.63456 1.41732,1.41732c0,0.78277 -0.63456,1.41732 -1.41732,1.41732c-0.78277,0 -1.41732,-0.63456 -1.41732,-1.41732z" stroke="#333333"></path><polygon points="124.88189,290.70866 124.88189,109.29134 275.11811,109.29134 275.11811,290.70866" stroke="#0088aa"></polygon><path d="M198.58268,200c0,-0.78277 0.63456,-1.41732 1.41732,-1.41732c0.78277,0 1.41732,0.63456 1.41732,1.41732c0,0.78277 -0.63456,1.41732 -1.41732,1.41732c-0.78277,0 -1.41732,-0.63456 -1.41732,-1.41732z" stroke="#0088aa"></path><polygon points="-366.92913,766.92913 -366.92913,-366.92913 766.92913,-366.92913 766.92913,766.92913" stroke="#0000ff"></polygon><path d="M198.58268,200c0,-0.78277 0.63456,-1.41732 1.41732,-1.41732c0.78277,0 1.41732,0.63456 1.41732,1.41732c0,0.78277 -0.63456,1.41732 -1.41732,1.41732c-0.78277,0 -1.41732,-0.63456 -1.41732,-1.41732z" stroke="#0000ff"></path></g></svg>
