<?xml version="1.0" encoding="utf-8"?>
<!-- Generator: Adobe Illustrator 16.0.0, SVG Export Plug-In . SVG Version: 6.00 Build 0)  -->
<!DOCTYPE svg PUBLIC "-//W3C//DTD SVG 1.1//EN" "http://www.w3.org/Graphics/SVG/1.1/DTD/svg11.dtd">
<svg version="1.1" xmlns="http://www.w3.org/2000/svg" xmlns:xlink="http://www.w3.org/1999/xlink" x="0px" y="0px" width="30px"
	 height="60px" viewBox="0 0 30 60" enable-background="new 0 0 30 60" xml:space="preserve">
<g id="char-ampersand" display="none">
	
		<path display="inline" fill="none" stroke="#000000" stroke-width="3" stroke-linecap="round" stroke-linejoin="round" stroke-miterlimit="10" d="
		M23.571,36.429C23.571,32.878,26.45,30,30,30h8.571"/>
	
		<circle display="inline" fill="none" stroke="#000000" stroke-width="3" stroke-linecap="round" stroke-linejoin="round" stroke-miterlimit="10" cx="15" cy="15" r="15"/>
	
		<path display="inline" fill="none" stroke="#000000" stroke-width="3" stroke-linecap="round" stroke-linejoin="round" stroke-miterlimit="10" d="
		M15,30C6.716,30,0,36.715,0,45c0,8.283,6.716,15,15,15c8.284,0,15-6.717,15-15V30"/>
</g>
<g id="char-exclamation" display="none">
	
		<line display="inline" fill="none" stroke="#000000" stroke-width="3" stroke-linecap="round" stroke-linejoin="round" stroke-miterlimit="10" x1="5" y1="40" x2="5" y2="0"/>
	
		<line display="inline" fill="none" stroke="#000000" stroke-width="3" stroke-linecap="round" stroke-linejoin="round" stroke-miterlimit="10" x1="5" y1="50" x2="5" y2="60"/>
</g>
<g id="char-period" display="none">
	
		<line display="inline" fill="none" stroke="#000000" stroke-width="3" stroke-linecap="round" stroke-linejoin="round" stroke-miterlimit="10" x1="0" y1="60" x2="10" y2="50"/>
	
		<line display="inline" fill="none" stroke="#000000" stroke-width="3" stroke-linecap="round" stroke-linejoin="round" stroke-miterlimit="10" x1="0" y1="50" x2="10" y2="60"/>
</g>
<g id="char-question" display="none">
	
		<line display="inline" fill="none" stroke="#000000" stroke-width="3" stroke-linecap="round" stroke-linejoin="round" stroke-miterlimit="10" x1="15" y1="50" x2="15" y2="60"/>
	
		<path display="inline" fill="none" stroke="#000000" stroke-width="3" stroke-linecap="round" stroke-linejoin="round" stroke-miterlimit="10" d="
		M15,40V30c8.285,0,15-6.717,15-15c0-8.285-6.715-15-15-15C6.717,0,0,6.715,0,15"/>
</g>
<g id="char-semicolon" display="none">
	
		<line display="inline" fill="none" stroke="#000000" stroke-width="3" stroke-linecap="round" stroke-linejoin="round" stroke-miterlimit="10" x1="5" y1="35" x2="5" y2="45"/>
	
		<path display="inline" fill="none" stroke="#000000" stroke-width="3" stroke-linecap="round" stroke-linejoin="round" stroke-miterlimit="10" d="
		M5,55v5c0,2.762-2.238,5-5,5"/>
</g>
<g id="char-colon" display="none">
	
		<line display="inline" fill="none" stroke="#000000" stroke-width="3" stroke-linecap="round" stroke-linejoin="round" stroke-miterlimit="10" x1="5" y1="20" x2="5" y2="30"/>
	
		<line display="inline" fill="none" stroke="#000000" stroke-width="3" stroke-linecap="round" stroke-linejoin="round" stroke-miterlimit="10" x1="5" y1="40" x2="5" y2="50"/>
</g>
<g id="char-tilde" display="none">
	
		<path display="inline" fill="none" stroke="#000000" stroke-width="3" stroke-linecap="round" stroke-linejoin="round" stroke-miterlimit="10" d="
		M24.998,25c0,2.762-2.238,5-5,5H10c-2.762,0-5,2.238-5,5"/>
</g>
<g id="char-comma" display="none">
	
		<path display="inline" fill="none" stroke="#000000" stroke-width="3" stroke-linecap="round" stroke-linejoin="round" stroke-miterlimit="10" d="
		M5,55v5c0,2.762-2.238,5-5,5"/>
</g>
<g id="char-apostrophe" display="none">
	
		<path display="inline" fill="none" stroke="#000000" stroke-width="3" stroke-linecap="round" stroke-linejoin="round" stroke-miterlimit="10" d="
		M10,10V5c0-2.762-2.238-5-5-5"/>
</g>
<g id="char-quote" display="none">
	
		<line display="inline" fill="none" stroke="#000000" stroke-width="3" stroke-linecap="round" stroke-linejoin="round" stroke-miterlimit="10" x1="10" y1="0" x2="10" y2="10"/>
</g>
<g id="char-doublequote" display="none">
	
		<line display="inline" fill="none" stroke="#000000" stroke-width="3" stroke-linecap="round" stroke-linejoin="round" stroke-miterlimit="10" x1="15" y1="0" x2="15" y2="10"/>
	
		<line display="inline" fill="none" stroke="#000000" stroke-width="3" stroke-linecap="round" stroke-linejoin="round" stroke-miterlimit="10" x1="10" y1="0" x2="10" y2="10"/>
</g>
<g id="char-dash" display="none">
	
		<line display="inline" fill="none" stroke="#000000" stroke-width="3" stroke-linecap="round" stroke-linejoin="round" stroke-miterlimit="10" x1="5" y1="30" x2="25" y2="30"/>
</g>
<g id="char-9" display="none">
	
		<circle display="inline" fill="none" stroke="#000000" stroke-width="3" stroke-linecap="round" stroke-linejoin="round" stroke-miterlimit="10" cx="15" cy="15" r="15"/>
	
		<line display="inline" fill="none" stroke="#000000" stroke-width="3" stroke-linecap="round" stroke-linejoin="round" stroke-miterlimit="10" x1="30" y1="15" x2="30" y2="60"/>
</g>
<g id="char-8" display="none">
	
		<circle display="inline" fill="none" stroke="#000000" stroke-width="3" stroke-linecap="round" stroke-linejoin="round" stroke-miterlimit="10" cx="15" cy="15" r="15"/>
	
		<circle display="inline" fill="none" stroke="#000000" stroke-width="3" stroke-linecap="round" stroke-linejoin="round" stroke-miterlimit="10" cx="15" cy="45" r="15"/>
</g>
<g id="char-7" display="none">
	
		<line display="inline" fill="none" stroke="#000000" stroke-width="3" stroke-linecap="round" stroke-linejoin="round" stroke-miterlimit="10" x1="0" y1="0" x2="30" y2="0"/>
	
		<line display="inline" fill="none" stroke="#000000" stroke-width="3" stroke-linecap="round" stroke-linejoin="round" stroke-miterlimit="10" x1="30" y1="0" x2="0" y2="60"/>
	
		<line display="inline" fill="none" stroke="#000000" stroke-width="3" stroke-linecap="round" stroke-linejoin="round" stroke-miterlimit="10" x1="5" y1="30" x2="25" y2="30"/>
</g>
<g id="char-6" display="none">
	
		<circle display="inline" fill="none" stroke="#000000" stroke-width="3" stroke-linecap="round" stroke-linejoin="round" stroke-miterlimit="10" cx="15" cy="45" r="15"/>
	
		<path display="inline" fill="none" stroke="#000000" stroke-width="3" stroke-linecap="round" stroke-linejoin="round" stroke-miterlimit="10" d="
		M0,45V15C0,6.715,6.717,0,15,0c8.285,0,15,6.715,15,15"/>
</g>
<g id="char-5" display="none">
	
		<path display="inline" fill="none" stroke="#000000" stroke-width="3" stroke-linecap="round" stroke-linejoin="round" stroke-miterlimit="10" d="
		M0,45c0,8.283,6.717,15,15,15c8.285,0,15-6.717,15-15c0-8.285-6.715-15-15-15H0V0h30"/>
</g>
<g id="char-4" display="none">
	
		<polyline display="inline" fill="none" stroke="#000000" stroke-width="3" stroke-linecap="round" stroke-linejoin="round" stroke-miterlimit="10" points="
		25,60 25,0 0,30 30,30 	"/>
</g>
<g id="char-3" display="none">
	
		<path display="inline" fill="none" stroke="#000000" stroke-width="3" stroke-linecap="round" stroke-linejoin="round" stroke-miterlimit="10" d="
		M0,45c0,8.283,6.716,15,15,15s15-6.717,15-15c0-8.285-6.716-15-15-15c8.284,0,15-6.717,15-15c0-8.285-6.716-15-15-15S0,6.715,0,15"
		/>
</g>
<g id="char-2" display="none">
	
		<path display="inline" fill="none" stroke="#000000" stroke-width="3" stroke-linecap="round" stroke-linejoin="round" stroke-miterlimit="10" d="
		M30,60H0l27.457-36.646C29.062,20.967,30,18.093,30,15c0-8.285-6.716-15-15-15S0,6.715,0,15"/>
</g>
<g id="char-1" display="none">
	
		<polyline display="inline" fill="none" stroke="#000000" stroke-width="3" stroke-linecap="round" stroke-linejoin="round" stroke-miterlimit="10" points="
		15,0 0,10 15,0 15,60 0,60 30,60 	"/>
</g>
<g id="char-0" display="none">
	
		<path display="inline" fill="none" stroke="#000000" stroke-width="3" stroke-linecap="round" stroke-linejoin="round" stroke-miterlimit="10" d="
		M30,45V15c0-8.284-6.716-15-15-15S0,6.716,0,15v30c0,8.284,6.716,15,15,15S30,53.284,30,45z"/>
	
		<line display="inline" fill="none" stroke="#000000" stroke-width="3" stroke-linecap="round" stroke-linejoin="round" stroke-miterlimit="10" x1="5" y1="5" x2="25" y2="55"/>
</g>
<g id="char-z" display="none">
	
		<polyline display="inline" fill="none" stroke="#000000" stroke-width="2" stroke-linecap="round" stroke-linejoin="round" stroke-miterlimit="10" points="
		30,60 0,60 30,30.333 0,30.333 	"/>
</g>
<g id="char-y" display="none">
	<g display="inline">
		
			<line fill="none" stroke="#000000" stroke-width="2" stroke-linecap="round" stroke-linejoin="round" stroke-miterlimit="10" x1="0" y1="30" x2="12" y2="60"/>
		
			<line fill="none" stroke="#000000" stroke-width="2" stroke-linecap="round" stroke-linejoin="round" stroke-miterlimit="10" x1="30" y1="30" x2="0" y2="80"/>
	</g>
</g>
<g id="char-x" display="none">
	<g display="inline">
		
			<line fill="none" stroke="#000000" stroke-width="2" stroke-linecap="round" stroke-linejoin="round" stroke-miterlimit="10" x1="0" y1="30" x2="30" y2="60"/>
		
			<line fill="none" stroke="#000000" stroke-width="2" stroke-linecap="round" stroke-linejoin="round" stroke-miterlimit="10" x1="30" y1="30" x2="0" y2="60"/>
	</g>
</g>
<g id="char-w" display="none">
	<g display="inline">
		<path fill="none" stroke="#000000" stroke-width="2" stroke-linecap="round" stroke-linejoin="round" stroke-miterlimit="10" d="
			M0,30v22.5C0,56.643,3.357,60,7.5,60s7.5-3.357,7.5-7.5c0,4.143,3.357,7.5,7.5,7.5s7.5-3.357,7.5-7.5V30"/>
		
			<line fill="none" stroke="#000000" stroke-width="2" stroke-linecap="round" stroke-linejoin="round" stroke-miterlimit="10" x1="15" y1="52.5" x2="15" y2="45"/>
	</g>
</g>
<g id="char-v" display="none">
	
		<polyline display="inline" fill="none" stroke="#000000" stroke-width="2" stroke-linecap="round" stroke-linejoin="round" stroke-miterlimit="10" points="
		30,30 15,60 0,30 	"/>
</g>
<g id="char-u" display="none">
	<g display="inline">
		<path fill="none" stroke="#000000" stroke-width="2" stroke-linecap="round" stroke-linejoin="round" stroke-miterlimit="10" d="
			M30,30v15c0,8.285-6.716,15-15,15S0,53.285,0,45V30"/>
		
			<line fill="none" stroke="#000000" stroke-width="2" stroke-linecap="round" stroke-linejoin="round" stroke-miterlimit="10" x1="30" y1="45" x2="30" y2="60"/>
	</g>
</g>
<g id="char-t" display="none">
	<g display="inline">
		<path fill="none" stroke="#000000" stroke-width="2" stroke-linecap="round" stroke-linejoin="round" stroke-miterlimit="10" d="
			M10,0v50c0,5.522,4.478,10,10,10s10-4.478,10-10"/>
		
			<line fill="none" stroke="#000000" stroke-width="2" stroke-linecap="round" stroke-linejoin="round" stroke-miterlimit="10" x1="0" y1="30" x2="30" y2="30"/>
	</g>
</g>
<g id="char-s" display="none">
	<g display="inline">
		<path fill="none" stroke="#000000" stroke-width="2" stroke-linecap="round" stroke-linejoin="round" stroke-miterlimit="10" d="
			M30,37.5c0-4.142-3.357-7.5-7.5-7.5h-15C3.359,30,0,33.358,0,37.5S3.359,45,7.5,45h15c4.143,0,7.5,3.358,7.5,7.5
			S26.643,60,22.5,60h-15C3.359,60,0,56.642,0,52.5"/>
	</g>
</g>
<g id="char-r" display="none">
	<g display="inline">
		<path fill="none" stroke="#000000" stroke-width="2" stroke-linecap="round" stroke-linejoin="round" stroke-miterlimit="10" d="
			M30,45c0-8.285-6.716-15-15-15S0,36.715,0,45v15V30"/>
	</g>
</g>
<g id="char-q" display="none">
	
		<circle display="inline" fill="none" stroke="#000000" stroke-width="2" stroke-linecap="round" stroke-linejoin="round" stroke-miterlimit="10" cx="15" cy="45" r="15"/>
	
		<polyline display="inline" fill="none" stroke="#000000" stroke-width="2" stroke-linecap="round" stroke-linejoin="round" stroke-miterlimit="10" points="
		30,30 30,80 40,70 	"/>
</g>
<g id="char-p" display="none">
	<g display="inline">
		<g>
			
				<circle fill="none" stroke="#000000" stroke-width="2" stroke-linecap="round" stroke-linejoin="round" stroke-miterlimit="10" cx="15" cy="45" r="15"/>
		</g>
		
			<line fill="none" stroke="#000000" stroke-width="2" stroke-linecap="round" stroke-linejoin="round" stroke-miterlimit="10" x1="0" y1="30" x2="0" y2="80"/>
	</g>
</g>
<g id="char-o" display="none">
	<g display="inline">
		
			<circle fill="none" stroke="#000000" stroke-width="2" stroke-linecap="round" stroke-linejoin="round" stroke-miterlimit="10" cx="15" cy="45" r="15"/>
	</g>
</g>
<g id="char-n" display="none">
	<g display="inline">
		<path fill="none" stroke="#000000" stroke-width="2" stroke-linecap="round" stroke-linejoin="round" stroke-miterlimit="10" d="
			M30,60V45c0-8.285-6.717-15-15-15C6.715,30,0,36.715,0,45v15V30"/>
	</g>
</g>
<g id="char-m" display="none">
	<g display="inline">
		<g>
			<path fill="none" stroke="#000000" stroke-width="2" stroke-linecap="round" stroke-linejoin="round" stroke-miterlimit="10" d="
				M30,60V37.5c0-4.143-3.357-7.5-7.5-7.5S15,33.357,15,37.5c0-4.143-3.357-7.5-7.5-7.5S0,33.357,0,37.5V60"/>
			
				<line fill="none" stroke="#000000" stroke-width="2" stroke-linecap="round" stroke-linejoin="round" stroke-miterlimit="10" x1="15" y1="37.5" x2="15" y2="45"/>
		</g>
		
			<line fill="none" stroke="#000000" stroke-width="2" stroke-linecap="round" stroke-linejoin="round" stroke-miterlimit="10" x1="0" y1="40" x2="0" y2="30"/>
	</g>
</g>
<g id="char-l">
	<path fill="none" stroke="#000000" stroke-width="2" stroke-linecap="round" stroke-linejoin="round" stroke-miterlimit="10" d="
		M5,0h5c2.762,0,5,2.238,5,5v50c0,2.762,2.238,5,5,5h5"/>
</g>
<g id="char-k" display="none">
	<g display="inline">
		
			<line fill="none" stroke="#000000" stroke-width="2" stroke-linecap="round" stroke-linejoin="round" stroke-miterlimit="10" x1="0" y1="45" x2="30" y2="60"/>
		
			<line fill="none" stroke="#000000" stroke-width="2" stroke-linecap="round" stroke-linejoin="round" stroke-miterlimit="10" x1="0" y1="45" x2="20" y2="30"/>
		
			<line fill="none" stroke="#000000" stroke-width="2" stroke-linecap="round" stroke-linejoin="round" stroke-miterlimit="10" x1="0" y1="60" x2="0" y2="0"/>
	</g>
</g>
<g id="char-j" display="none">
	
		<line display="inline" fill="none" stroke="#000000" stroke-width="2" stroke-linecap="round" stroke-linejoin="round" stroke-miterlimit="10" x1="20" y1="25" x2="20" y2="15"/>
	
		<path display="inline" fill="none" stroke="#000000" stroke-width="2" stroke-linecap="round" stroke-linejoin="round" stroke-miterlimit="10" d="
		M30,30h-5c-2.762,0-5,2.238-5,5v35c0,5.522-4.478,10-10,10S0,75.522,0,70"/>
</g>
<g id="char-i" display="none">
	<g display="inline">
		
			<line fill="none" stroke="#000000" stroke-width="2" stroke-linecap="round" stroke-linejoin="round" stroke-miterlimit="10" x1="10" y1="25" x2="10" y2="15"/>
		<path fill="none" stroke="#000000" stroke-width="2" stroke-linecap="round" stroke-linejoin="round" stroke-miterlimit="10" d="
			M0,30h10v20c0,5.522,4.478,10,10,10s10-4.478,10-10"/>
	</g>
</g>
<g id="char-h" display="none">
	
		<path display="inline" fill="none" stroke="#000000" stroke-width="2" stroke-linecap="round" stroke-linejoin="round" stroke-miterlimit="10" d="
		M30,60V45c0-8.285-6.716-15-15-15S0,36.715,0,45v15V0"/>
</g>
<g id="char-g" display="none">
	
		<circle display="inline" fill="none" stroke="#000000" stroke-width="2" stroke-linecap="round" stroke-linejoin="round" stroke-miterlimit="10" cx="15" cy="45" r="15"/>
	
		<path display="inline" fill="none" stroke="#000000" stroke-width="2" stroke-linecap="round" stroke-linejoin="round" stroke-miterlimit="10" d="
		M30,45v20c0,8.283-6.716,15-15,15S0,73.283,0,65"/>
</g>
<g id="char-f" display="none">
	<g display="inline">
		<path fill="none" stroke="#000000" stroke-width="2" stroke-linecap="round" stroke-linejoin="round" stroke-miterlimit="10" d="
			M15,30"/>
		
			<line fill="none" stroke="#000000" stroke-width="2" stroke-linecap="round" stroke-linejoin="round" stroke-miterlimit="10" x1="0" y1="30" x2="30" y2="30"/>
		<path fill="none" stroke="#000000" stroke-width="2" stroke-linecap="round" stroke-linejoin="round" stroke-miterlimit="10" d="
			M0,60h5c2.762,0,5-2.238,5-5V10c0-5.522,4.478-10,10-10s10,4.478,10,10"/>
	</g>
</g>
<g id="char-e" display="none">
	
		<path display="inline" fill="none" stroke="#000000" stroke-width="2" stroke-linecap="round" stroke-linejoin="round" stroke-miterlimit="10" d="
		M25.606,55.606C22.678,58.535,18.839,60,15,60C6.716,60,0,53.283,0,45c0-8.285,6.716-15,15-15s15,6.715,15,15H0"/>
</g>
<g id="char-d" display="none">
	
		<circle display="inline" fill="none" stroke="#000000" stroke-width="2" stroke-linecap="round" stroke-linejoin="round" stroke-miterlimit="10" cx="15" cy="45" r="15"/>
	
		<line display="inline" fill="none" stroke="#000000" stroke-width="2" stroke-linecap="round" stroke-linejoin="round" stroke-miterlimit="10" x1="30" y1="60" x2="30" y2="0"/>
</g>
<g id="char-c" display="none">
	
		<path display="inline" fill="none" stroke="#000000" stroke-width="2" stroke-linecap="round" stroke-linejoin="round" stroke-miterlimit="10" d="
		M25.606,34.394c-5.858-5.858-15.355-5.858-21.213,0c-5.858,5.857-5.858,15.354,0,21.213c5.856,5.857,15.355,5.858,21.213,0"/>
</g>
<g id="char-b" display="none">
	
		<line display="inline" fill="none" stroke="#000000" stroke-width="2" stroke-linecap="round" stroke-linejoin="round" stroke-miterlimit="10" x1="0" y1="60" x2="0" y2="0"/>
	
		<circle display="inline" fill="none" stroke="#000000" stroke-width="2" stroke-linecap="round" stroke-linejoin="round" stroke-miterlimit="10" cx="15" cy="45" r="15"/>
</g>
<g id="char-a" display="none">
	
		<circle display="inline" fill="none" stroke="#000000" stroke-width="2" stroke-linecap="round" stroke-linejoin="round" stroke-miterlimit="10" cx="15" cy="45" r="15"/>
	
		<line display="inline" fill="none" stroke="#000000" stroke-width="2" stroke-linecap="round" stroke-linejoin="round" stroke-miterlimit="10" x1="30" y1="45" x2="30" y2="60"/>
</g>
<g id="char-Z" display="none">
	
		<polyline display="inline" fill="none" stroke="#000000" stroke-width="3" stroke-linecap="round" stroke-linejoin="round" stroke-miterlimit="10" points="
		30,60 0,60 30,0 0,0 	"/>
</g>
<g id="char-Y" display="none">
	
		<line display="inline" fill="none" stroke="#000000" stroke-width="3" stroke-linecap="round" stroke-linejoin="round" stroke-miterlimit="10" x1="0" y1="0" x2="15" y2="30"/>
	
		<line display="inline" fill="none" stroke="#000000" stroke-width="3" stroke-linecap="round" stroke-linejoin="round" stroke-miterlimit="10" x1="15" y1="30" x2="30" y2="0"/>
	
		<line display="inline" fill="none" stroke="#000000" stroke-width="3" stroke-linecap="round" stroke-linejoin="round" stroke-miterlimit="10" x1="15" y1="30" x2="15" y2="60"/>
</g>
<g id="char-X" display="none">
	
		<line display="inline" fill="none" stroke="#000000" stroke-width="3" stroke-linecap="round" stroke-linejoin="round" stroke-miterlimit="10" x1="0" y1="0" x2="30" y2="60"/>
	
		<line display="inline" fill="none" stroke="#000000" stroke-width="3" stroke-linecap="round" stroke-linejoin="round" stroke-miterlimit="10" x1="0" y1="60" x2="30" y2="0"/>
</g>
<g id="char-W" display="none">
	
		<polyline display="inline" fill="none" stroke="#000000" stroke-width="3" stroke-linecap="round" stroke-linejoin="round" stroke-miterlimit="10" points="
		0,0 0,60 15,10 30,60 30,0 	"/>
</g>
<g id="char-V" display="none">
	
		<polyline display="inline" fill="none" stroke="#000000" stroke-width="3" stroke-linecap="round" stroke-linejoin="round" stroke-miterlimit="10" points="
		0,0 15,60 30,0 	"/>
</g>
<g id="char-U" display="none">
	
		<path display="inline" fill="none" stroke="#000000" stroke-width="3" stroke-linecap="round" stroke-linejoin="round" stroke-miterlimit="10" d="
		M0,0v45c0,8.284,6.715,15,15,15c8.283,0,15-6.716,15-15V0"/>
</g>
<g id="char-T" display="none">
	
		<polyline display="inline" fill="none" stroke="#000000" stroke-width="3" stroke-linecap="round" stroke-linejoin="round" stroke-miterlimit="10" points="
		30,0 0,0 15,0 15,60 	"/>
</g>
<g id="char-S" display="none">
	
		<path display="inline" fill="none" stroke="#000000" stroke-width="3" stroke-linecap="round" stroke-linejoin="round" stroke-miterlimit="10" d="
		M0,45c0,8.284,6.716,15,15,15s15-6.716,15-15s-6.716-15-15-15S0,23.284,0,15S6.716,0,15,0s15,6.716,15,15"/>
</g>
<g id="char-R" display="none">
	
		<path display="inline" fill="none" stroke="#000000" stroke-width="3" stroke-linecap="round" stroke-linejoin="round" stroke-miterlimit="10" d="
		M0,30h15c8.284,0,15-6.716,15-15S23.284,0,15,0H0v60"/>
	
		<line display="inline" fill="none" stroke="#000000" stroke-width="3" stroke-linecap="round" stroke-linejoin="round" stroke-miterlimit="10" x1="0" y1="30" x2="30" y2="60"/>
</g>
<g id="char-Q" display="none">
	
		<path display="inline" fill="none" stroke="#000000" stroke-width="3" stroke-linecap="round" stroke-linejoin="round" stroke-miterlimit="10" d="
		M30,45V15c0-8.284-6.716-15-15-15S0,6.716,0,15v30c0,8.284,6.716,15,15,15S30,53.284,30,45z"/>
	
		<line display="inline" fill="none" stroke="#000000" stroke-width="3" stroke-linecap="round" stroke-linejoin="round" stroke-miterlimit="10" x1="30" y1="60" x2="15" y2="45"/>
</g>
<g id="char-P" display="none">
	
		<path display="inline" fill="none" stroke="#000000" stroke-width="3" stroke-linecap="round" stroke-linejoin="round" stroke-miterlimit="10" d="
		M0,30h15c8.285,0,15-6.716,15-15S23.285,0,15,0H0v60"/>
</g>
<g id="char-O" display="none">
	
		<path display="inline" fill="none" stroke="#000000" stroke-width="3" stroke-linecap="round" stroke-linejoin="round" stroke-miterlimit="10" d="
		M30,45V15c0-8.284-6.715-15-15-15C6.717,0,0,6.716,0,15v30c0,8.284,6.717,15,15,15C23.285,60,30,53.284,30,45z"/>
</g>
<g id="char-N" display="none">
	
		<polyline display="inline" fill="none" stroke="#000000" stroke-width="3" stroke-linecap="round" stroke-linejoin="round" stroke-miterlimit="10" points="
		0,60 0,0 30,60 30,0 	"/>
</g>
<g id="char-M" display="none">
	
		<polyline display="inline" fill="none" stroke="#000000" stroke-width="3" stroke-linecap="round" stroke-linejoin="round" stroke-miterlimit="10" points="
		30,60 30,0 15,50 0,0 0,60 	"/>
</g>
<g id="char-L" display="none">
	
		<polyline display="inline" fill="none" stroke="#000000" stroke-width="3" stroke-linecap="round" stroke-linejoin="round" stroke-miterlimit="10" points="
		30,60 0,60 0,0 	"/>
</g>
<g id="char-K" display="none">
	
		<line display="inline" fill="none" stroke="#000000" stroke-width="3" stroke-linecap="round" stroke-linejoin="round" stroke-miterlimit="10" x1="0" y1="0" x2="0" y2="60"/>
	
		<polyline display="inline" fill="none" stroke="#000000" stroke-width="3" stroke-linecap="round" stroke-linejoin="round" stroke-miterlimit="10" points="
		30,0 0,30 30,60 	"/>
</g>
<g id="char-J" display="none">
	
		<path display="inline" fill="none" stroke="#000000" stroke-width="3" stroke-linecap="round" stroke-linejoin="round" stroke-miterlimit="10" d="
		M10,0h20v45c0,8.284-6.716,15-15,15S0,53.284,0,45"/>
</g>
<g id="char-I" display="none">
	
		<polyline display="inline" fill="none" stroke="#000000" stroke-width="3" stroke-linecap="round" stroke-linejoin="round" stroke-miterlimit="10" points="
		30,0 0,0 15,0 15,60 0,60 30,60 	"/>
</g>
<g id="char-H" display="none">
	
		<line display="inline" fill="none" stroke="#000000" stroke-width="3" stroke-linecap="round" stroke-linejoin="round" stroke-miterlimit="10" x1="0" y1="60" x2="0" y2="0"/>
	
		<line display="inline" fill="none" stroke="#000000" stroke-width="3" stroke-linecap="round" stroke-linejoin="round" stroke-miterlimit="10" x1="30" y1="60" x2="30" y2="0"/>
	
		<line display="inline" fill="none" stroke="#000000" stroke-width="3" stroke-linecap="round" stroke-linejoin="round" stroke-miterlimit="10" x1="0" y1="30" x2="30" y2="30"/>
</g>
<g id="char-G" display="none">
	
		<path display="inline" fill="none" stroke="#000000" stroke-width="3" stroke-linecap="round" stroke-linejoin="round" stroke-miterlimit="10" d="
		M30,15c0-8.284-6.715-15-15-15C6.717,0,0,6.716,0,15v30c0,8.284,6.717,15,15,15c8.285,0,15-6.716,15-15V30H10"/>
</g>
<g id="char-F" display="none">
	
		<polyline display="inline" fill="none" stroke="#000000" stroke-width="3" stroke-linecap="round" stroke-linejoin="round" stroke-miterlimit="10" points="
		0,60 0,0 30,0 	"/>
	
		<line display="inline" fill="none" stroke="#000000" stroke-width="3" stroke-linecap="round" stroke-linejoin="round" stroke-miterlimit="10" x1="0" y1="30" x2="10" y2="30"/>
</g>
<g id="char-E" display="none">
	
		<polyline display="inline" fill="none" stroke="#000000" stroke-width="3" stroke-linecap="round" stroke-linejoin="round" stroke-miterlimit="10" points="
		30,60 0,60 0,0 30,0 	"/>
	
		<line display="inline" fill="none" stroke="#000000" stroke-width="3" stroke-linecap="round" stroke-linejoin="round" stroke-miterlimit="10" x1="0" y1="30" x2="10" y2="30"/>
</g>
<g id="char-D" display="none">
	
		<path display="inline" fill="none" stroke="#000000" stroke-width="3" stroke-linecap="round" stroke-linejoin="round" stroke-miterlimit="10" d="
		M30,15c0-8.284-6.716-15-15-15H0v60h15c8.284,0,15-6.716,15-15V15z"/>
</g>
<g id="char-C" display="none">
	
		<path display="inline" fill="none" stroke="#000000" stroke-width="3" stroke-linecap="round" stroke-linejoin="round" stroke-miterlimit="10" d="
		M30,15c0-8.284-6.716-15-15-15S0,6.716,0,15v30c0,8.284,6.716,15,15,15s15-6.716,15-15"/>
</g>
<g id="char-B" display="none">
	
		<path display="inline" fill="none" stroke="#000000" stroke-width="3" stroke-linecap="round" stroke-linejoin="round" stroke-miterlimit="10" d="
		M15,0c8.283,0,15,6.717,15,15s-6.717,15-15,15c8.283,0,15,6.717,15,15s-6.717,15-15,15H0V0H15z"/>
</g>
<g id="char-A" display="none">
	
		<polyline display="inline" fill="none" stroke="#000000" stroke-width="3" stroke-linecap="round" stroke-linejoin="round" stroke-miterlimit="10" points="
		30,60 15,0 0,60 	"/>
	
		<line display="inline" fill="none" stroke="#000000" stroke-width="3" stroke-linecap="round" stroke-linejoin="round" stroke-miterlimit="10" x1="22.5" y1="30" x2="7.5" y2="30"/>
</g>
</svg>
