<?xml version="1.0" encoding="utf-8"?>
<!-- Generator: Adobe Illustrator 16.0.0, SVG Export Plug-In . SVG Version: 6.00 Build 0)  -->
<!DOCTYPE svg PUBLIC "-//W3C//DTD SVG 1.1//EN" "http://www.w3.org/Graphics/SVG/1.1/DTD/svg11.dtd">
<svg version="1.1" id="Layer_1" xmlns="http://www.w3.org/2000/svg" xmlns:xlink="http://www.w3.org/1999/xlink" x="0px" y="0px"
	 width="42px" height="42px" viewBox="-1 -1 42 42" enable-background="new -1 -1 42 42" xml:space="preserve">
<g>
	<rect fill="none" stroke="#000000" stroke-width="2" stroke-miterlimit="10" width="40" height="40"/>
	<g>
		<rect x="18.208" y="7" width="5" height="5"/>
		<rect x="18.208" y="28" width="5" height="5"/>
		<rect x="28.709" y="17.5" width="5" height="5"/>
		<rect x="7.708" y="17.5" width="5" height="5"/>
		<rect x="25.634" y="24.925" transform="matrix(0.7071 -0.7071 0.7071 0.7071 -11.1522 27.9258)" width="4.998" height="4.999"/>
		<rect x="10.783" y="10.076" transform="matrix(0.7071 -0.7071 0.7071 0.7071 -5.0017 13.0761)" width="5" height="5"/>
		<rect x="10.786" y="24.922" transform="matrix(0.7071 0.7072 -0.7072 0.7071 23.2838 -1.3619)" width="4.999" height="5.001"/>
		<rect x="25.634" y="10.073" transform="matrix(0.7072 0.7071 -0.7071 0.7072 17.129 -16.2106)" width="5.001" height="5.001"/>
		<path d="M20.708,10c-5.522,0-10,4.477-10,10c0,5.523,4.477,10,10,10c5.522,0,10-4.477,10-10C30.707,14.477,26.23,10,20.708,10z
			 M20.708,23.625c-2.001,0-3.625-1.623-3.625-3.625s1.623-3.625,3.625-3.625s3.625,1.623,3.625,3.625S22.709,23.625,20.708,23.625z
			"/>
	</g>
</g>
</svg>
