<?xml version="1.0" encoding="utf-8"?>
<!-- Generator: Adobe Illustrator 16.0.0, SVG Export Plug-In . SVG Version: 6.00 Build 0)  -->
<!DOCTYPE svg PUBLIC "-//W3C//DTD SVG 1.1//EN" "http://www.w3.org/Graphics/SVG/1.1/DTD/svg11.dtd">
<svg version="1.1" xmlns="http://www.w3.org/2000/svg" xmlns:xlink="http://www.w3.org/1999/xlink" x="0px" y="0px" width="42px"
	 height="42px" viewBox="0 0 42 42" enable-background="new 0 0 42 42" xml:space="preserve">
<g id="Layer_1">
</g>
<g id="Layer_5">
	<rect x="1" y="1" fill="none" stroke="#000000" stroke-width="2" stroke-miterlimit="10" width="40" height="40"/>
	<path fill="none" stroke="#000000" stroke-width="2" stroke-miterlimit="10" d="M8.488,8.488"/>
	<path fill="none" stroke="#000000" stroke-width="2" stroke-miterlimit="10" d="M21,33.512"/>
	<path fill="none" stroke="#000000" stroke-width="2" stroke-miterlimit="10" d="M8.488,29.342"/>
	<path fill="none" stroke="#000000" stroke-width="2" stroke-miterlimit="10" d="M8.488,29.342"/>
	<path fill="none" stroke="#000000" stroke-miterlimit="10" d="M21,33.512c4.17-4.17,12.512-4.17,12.512-4.17V8.488
		c0,0-8.342,0-12.512,4.17c-4.17-4.17-12.512-4.17-12.512-4.17v20.854C8.488,29.342,16.829,29.342,21,33.512"/>
	<path fill="none" stroke="#000000" stroke-miterlimit="10" d="M33.512,9.732v19.609c0,0-8.342,0-12.512,4.17
		c-4.17-4.17-12.512-4.17-12.512-4.17V9.732L6,9v21l12.5,4v1h5v-1L36,30V9L33.512,9.732z"/>
	<line fill="none" stroke="#000000" stroke-miterlimit="10" x1="21" y1="12.659" x2="21" y2="33.512"/>
	<path fill="none" stroke="#000000" stroke-miterlimit="10" d="M19.123,16.204c-2.919-2.919-8.758-2.919-8.758-2.919"/>
	<path fill="none" stroke="#000000" stroke-miterlimit="10" d="M19.123,21c-2.919-2.919-8.758-2.919-8.758-2.919"/>
	<path fill="none" stroke="#000000" stroke-miterlimit="10" d="M19.123,25.257c-2.919-2.919-8.758-2.919-8.758-2.919"/>
	<path fill="none" stroke="#000000" stroke-miterlimit="10" d="M22.678,16.204c2.92-2.919,8.758-2.919,8.758-2.919"/>
	<path fill="none" stroke="#000000" stroke-miterlimit="10" d="M22.678,21c2.92-2.919,8.758-2.919,8.758-2.919"/>
	<path fill="none" stroke="#000000" stroke-miterlimit="10" d="M22.678,25.257c2.92-2.919,8.758-2.919,8.758-2.919"/>
</g>
</svg>
